<?xml version="1.0" encoding="UTF-8"?>
<svg version="1.1" xmlns="http://www.w3.org/2000/svg" width="200" height="129">
<path d="M0 0 C0.66 0 1.32 0 2 0 C2.81832722 1.89332534 3.62942268 3.78977733 4.4375 5.6875 C4.88996094 6.74324219 5.34242187 7.79898437 5.80859375 8.88671875 C10.60810004 21.42837944 8.23784421 34.95712179 3 46.9375 C-2.68242902 57.59834029 -12.74824633 65.84517987 -21.60473633 73.83666992 C-25.09910624 77.02651023 -27.66193683 79.8372997 -30 84 C-30.66 84 -31.32 84 -32 84 C-32.33 85.65 -32.66 87.3 -33 89 C-32.34 89.33 -31.68 89.66 -31 90 C-30.97494385 90.63091553 -30.9498877 91.26183105 -30.92407227 91.91186523 C-30.80845863 94.75396825 -30.68557684 97.59571083 -30.5625 100.4375 C-30.52318359 101.43072266 -30.48386719 102.42394531 -30.44335938 103.44726562 C-30.40146484 104.39150391 -30.35957031 105.33574219 -30.31640625 106.30859375 C-30.27974854 107.18314209 -30.24309082 108.05769043 -30.20532227 108.95874023 C-30.21818934 110.9927402 -30.21818934 110.9927402 -29 112 C-28.61070313 111.45472656 -28.22140625 110.90945312 -27.8203125 110.34765625 C-16.70475 95.36469758 -3.28901054 87.64961944 14 81 C14.33 64.17 14.66 47.34 15 30 C13.35 30 11.7 30 10 30 C9.95758277 27.66705225 9.95907063 25.33297433 10 23 C10.495 22.505 10.495 22.505 11 22 C14.63 22 18.26 22 22 22 C22 43.45 22 64.9 22 87 C15.4 89.31 8.8 91.62 2 94 C-3.44636828 96.72318414 -8.21624089 99.30345887 -13 103 C-9.23757407 101.54759293 -5.63137758 99.87713968 -2 98.125 C6.42923679 94.22133529 14.62862957 90.86179119 24 91 C23.99000725 90.04826401 23.99000725 90.04826401 23.97981262 89.07730103 C23.91359909 82.49168957 23.86825777 75.90617219 23.83520508 69.3203125 C23.82009012 66.86031252 23.79959773 64.40033959 23.77368164 61.94042969 C23.7374177 58.41073948 23.72030086 54.88140456 23.70703125 51.3515625 C23.69154739 50.24632233 23.67606354 49.14108215 23.66011047 48.00234985 C23.65988388 46.98144257 23.65965729 45.96053528 23.65942383 44.90869141 C23.64943108 43.55633896 23.64943108 43.55633896 23.63923645 42.17666626 C23.75828842 41.45836639 23.87734039 40.74006653 24 40 C27 38 27 38 30.625 38.3125 C34 39 34 39 35 40 C35.10933299 41.7381973 35.14907948 43.48082138 35.16113281 45.22241211 C35.17074036 46.3370433 35.1803479 47.4516745 35.19024658 48.6000824 C35.1966214 50.42032677 35.1966214 50.42032677 35.203125 52.27734375 C35.20882507 53.51416397 35.21452515 54.75098419 35.22039795 56.02528381 C35.22986479 58.6472996 35.23638858 61.26932737 35.24023438 63.89135742 C35.24463245 66.58713218 35.25857047 69.28258927 35.28125 71.97827148 C35.31157625 75.84889545 35.3222673 79.71911452 35.328125 83.58984375 C35.3404718 84.80131577 35.3528186 86.01278778 35.36553955 87.26097107 C35.36253845 88.37875443 35.35953735 89.49653778 35.35644531 90.64819336 C35.36191376 92.12925819 35.36191376 92.12925819 35.36749268 93.64024353 C35.24622009 94.41896317 35.12494751 95.1976828 35 96 C32.05498299 97.96334467 30.72931433 98.38953811 27.3515625 98.9296875 C26.43415283 99.08324707 25.51674316 99.23680664 24.5715332 99.39501953 C23.59917725 99.55341309 22.62682129 99.71180664 21.625 99.875 C7.15804787 102.07294142 7.15804787 102.07294142 -6 108 C-5.31599121 107.823479 -4.63198242 107.64695801 -3.92724609 107.46508789 C21.19388222 101.04224014 21.19388222 101.04224014 33 101 C35.56687367 104.8503105 34.83288724 106.58569763 34 111 C33.26700684 111.06469482 32.53401367 111.12938965 31.77880859 111.19604492 C12.93513105 112.90817129 -5.31725143 115.36965723 -23.3125 121.375 C-32.38729129 124.23642068 -39.10066487 121.71551031 -47.94970703 119.01660156 C-62.3036429 114.72550429 -76.88312071 112.65850652 -91.80126953 111.5949707 C-92.72794434 111.52882568 -93.65461914 111.46268066 -94.609375 111.39453125 C-95.43405273 111.34143799 -96.25873047 111.28834473 -97.10839844 111.23364258 C-99 111 -99 111 -100 110 C-100.125 106.5 -100.125 106.5 -100 103 C-97.71939783 100.71939783 -92.98935342 101.69224714 -89.91748047 101.67651367 C-78.04244327 101.85950605 -66.21332769 105.2810069 -55 109 C-69.75865762 102.83371154 -84.1878407 99.96477987 -100 97 C-100 77.86 -100 58.72 -100 39 C-96.37 39 -92.74 39 -89 39 C-89 56.16 -89 73.32 -89 91 C-85.7 91.33 -82.4 91.66 -79 92 C-76.0919707 92.80939709 -73.37398149 93.64139819 -70.5625 94.6875 C-69.47171143 95.08243652 -69.47171143 95.08243652 -68.35888672 95.48535156 C-61.09931396 98.19383567 -54.4448773 101.70341513 -48 106 C-58.25517636 95.74482364 -72.5963956 91.39706198 -86 87 C-87.22824108 80.30504934 -87.14419598 73.67353934 -87.1328125 66.8828125 C-87.13424759 65.00346512 -87.13424759 65.00346512 -87.13571167 63.08615112 C-87.13656342 59.77561682 -87.1325569 56.46513005 -87.12695312 53.15460205 C-87.12434217 50.44141473 -87.12916614 47.72826036 -87.13394356 45.01507759 C-87.13841147 41.78348633 -87.13529154 38.55190478 -87.1328125 35.3203125 C-87.13483673 34.10062775 -87.13686096 32.88094299 -87.13894653 31.6242981 C-87.13579437 30.50578461 -87.13264221 29.38727112 -87.12939453 28.23486328 C-87.12820114 26.75096603 -87.12820114 26.75096603 -87.12698364 25.23709106 C-87 23 -87 23 -86 22 C-71.89267344 20.51501826 -56.97602833 27.46388874 -46.1875 36.1171875 C-42.94557716 38.90755681 -39.93710924 41.8928973 -37 45 C-37.33 45.99 -37.66 46.98 -38 48 C-37.34 48 -36.68 48 -36 48 C-35.75378906 47.42926758 -35.50757812 46.85853516 -35.25390625 46.27050781 C-33.79101003 43.6215719 -32.07354681 41.81451454 -29.9375 39.671875 C-29.14085938 38.87265625 -28.34421875 38.0734375 -27.5234375 37.25 C-26.69070312 36.425 -25.85796875 35.6 -25 34.75 C-23.75089844 33.48929688 -23.75089844 33.48929688 -22.4765625 32.203125 C-21.67992188 31.4090625 -20.88328125 30.615 -20.0625 29.796875 C-18.96615234 28.70391113 -18.96615234 28.70391113 -17.84765625 27.58886719 C-16 26 -16 26 -14 26 C-13.73960938 25.4225 -13.47921875 24.845 -13.2109375 24.25 C-11.9189715 21.84944383 -10.40904151 20.05671161 -8.625 18 C-4.99295809 13.45994761 -3.33681145 8.95110724 -1.7265625 3.40625 C-1 1 -1 1 0 0 Z M-80 29 C-80 46.49 -80 63.98 -80 82 C-75.71 83.65 -71.42 85.3 -67 87 C-63.28125 88.87890625 -63.28125 88.87890625 -60.5 90.5625 C-59.5615625 91.12066406 -58.623125 91.67882812 -57.65625 92.25390625 C-55 94 -55 94 -52.28125 96.21484375 C-50.22027257 98.20542397 -50.22027257 98.20542397 -48 98 C-48 98.66 -48 99.32 -48 100 C-46.47379124 101.50846152 -46.47379124 101.50846152 -44.5625 103 C-41.10169492 105.79661017 -41.10169492 105.79661017 -40 108 C-39.34 108 -38.68 108 -38 108 C-37.34 109.65 -36.68 111.3 -36 113 C-35.34 113 -34.68 113 -34 113 C-34 105.74 -34 98.48 -34 91 C-36.29575603 93.29575603 -36.32339599 94.00842525 -36.625 97.125 C-36.810625 99.043125 -36.810625 99.043125 -37 101 C-37.66 101 -38.32 101 -39 101 C-39.57290067 86.39103299 -36.02130811 74.19241338 -28.07421875 62.03125 C-27.71972656 61.3609375 -27.36523438 60.690625 -27 60 C-27.495 59.01 -27.495 59.01 -28 58 C-36.38115798 68.91724325 -40.5208221 79.31208506 -42 93 C-46.32576988 88.67423012 -46.15946361 80.9752734 -46.375 75.125 C-46.23042726 67.10121318 -43.77386726 59.75205709 -39.6875 52.875 C-39.130625 51.92625 -38.57375 50.9775 -38 50 C-38.80381538 47.88247578 -38.80381538 47.88247578 -40.6875 47.1875 C-42.84220664 46.08102902 -44.309987 44.95037803 -46.125 43.375 C-48.63546917 40.78770618 -48.63546917 40.78770618 -51 41 C-51 40.34 -51 39.68 -51 39 C-64.87631558 31.77529652 -64.87631558 31.77529652 -80 29 Z M-24 53 C-24.99 53.99 -25.98 54.98 -27 56 C-26.67 56.66 -26.34 57.32 -26 58 C-25.01 57.01 -24.02 56.02 -23 55 C-23.33 54.34 -23.66 53.68 -24 53 Z M-47 107 C-46.01 108.485 -46.01 108.485 -45 110 C-44.34 109.67 -43.68 109.34 -43 109 C-44.32 108.34 -45.64 107.68 -47 107 Z M-31 113 C-31.33 113.66 -31.66 114.32 -32 115 C-31.34 115 -30.68 115 -30 115 C-30.33 114.34 -30.66 113.68 -31 113 Z " fill="#B2CDC3" transform="translate(122,4)"/>
<path d="M0 0 C0.66 0 1.32 0 2 0 C2.81832722 1.89332534 3.62942268 3.78977733 4.4375 5.6875 C5.11619141 7.27111328 5.11619141 7.27111328 5.80859375 8.88671875 C10.60810004 21.42837944 8.23784421 34.95712179 3 46.9375 C-2.68242902 57.59834029 -12.74824633 65.84517987 -21.60473633 73.83666992 C-25.09910624 77.02651023 -27.66193683 79.8372997 -30 84 C-30.66 84 -31.32 84 -32 84 C-32.144375 84.61875 -32.28875 85.2375 -32.4375 85.875 C-33 88 -33 88 -34 90 C-35.32 90 -36.64 90 -38 90 C-38.92656576 77.90316926 -33.86096641 69.27622778 -28 59 C-35.31087135 69.32370882 -40.33997776 80.23957004 -41 93 C-41.99 93 -42.98 93 -44 93 C-48.19010766 78.93321 -48.28337838 67.55178969 -41.62109375 54.24609375 C-40.45956491 52.13151561 -39.26541378 50.05370433 -38 48 C-37.34 48 -36.68 48 -36 48 C-35.75378906 47.42926758 -35.50757812 46.85853516 -35.25390625 46.27050781 C-33.79101003 43.6215719 -32.07354681 41.81451454 -29.9375 39.671875 C-29.14085938 38.87265625 -28.34421875 38.0734375 -27.5234375 37.25 C-26.69070312 36.425 -25.85796875 35.6 -25 34.75 C-24.16726562 33.90953125 -23.33453125 33.0690625 -22.4765625 32.203125 C-21.67992188 31.4090625 -20.88328125 30.615 -20.0625 29.796875 C-19.33160156 29.06823242 -18.60070312 28.33958984 -17.84765625 27.58886719 C-16 26 -16 26 -14 26 C-13.73960938 25.4225 -13.47921875 24.845 -13.2109375 24.25 C-11.9189715 21.84944383 -10.40904151 20.05671161 -8.625 18 C-4.99295809 13.45994761 -3.33681145 8.95110724 -1.7265625 3.40625 C-1 1 -1 1 0 0 Z M-24 53 C-24.99 53.99 -25.98 54.98 -27 56 C-26.67 56.66 -26.34 57.32 -26 58 C-25.01 57.01 -24.02 56.02 -23 55 C-23.33 54.34 -23.66 53.68 -24 53 Z " fill="#F2A686" transform="translate(122,4)"/>
<path d="M0 0 C3.375 0.6875 3.375 0.6875 4.375 1.6875 C4.48433299 3.4256973 4.52407948 5.16832138 4.53613281 6.90991211 C4.54574036 8.0245433 4.5553479 9.1391745 4.56524658 10.2875824 C4.56949646 11.50107864 4.57374634 12.71457489 4.578125 13.96484375 C4.58382507 15.20166397 4.58952515 16.43848419 4.59539795 17.71278381 C4.60486479 20.3347996 4.61138858 22.95682737 4.61523438 25.57885742 C4.61963245 28.27463218 4.63357047 30.97008927 4.65625 33.66577148 C4.68657625 37.53639545 4.6972673 41.40661452 4.703125 45.27734375 C4.7154718 46.48881577 4.7278186 47.70028778 4.74053955 48.94847107 C4.73753845 50.06625443 4.73453735 51.18403778 4.73144531 52.33569336 C4.73691376 53.81675819 4.73691376 53.81675819 4.74249268 55.32774353 C4.62122009 56.10646317 4.49994751 56.8851828 4.375 57.6875 C1.42998299 59.65084467 0.10431433 60.07703811 -3.2734375 60.6171875 C-4.19084717 60.77074707 -5.10825684 60.92430664 -6.0534668 61.08251953 C-7.02582275 61.24091309 -7.99817871 61.39930664 -9 61.5625 C-23.46695213 63.76044142 -23.46695213 63.76044142 -36.625 69.6875 C-35.94099121 69.510979 -35.25698242 69.33445801 -34.55224609 69.15258789 C-9.43111778 62.72974014 -9.43111778 62.72974014 2.375 62.6875 C4.94187367 66.5378105 4.20788724 68.27319763 3.375 72.6875 C2.27551025 72.78454224 2.27551025 72.78454224 1.15380859 72.88354492 C-12.71929204 74.14404736 -26.28049465 75.61566972 -39.78173828 79.14916992 C-47.41407063 81.10555424 -47.41407063 81.10555424 -51.625 79.6875 C-51.295 78.0375 -50.965 76.3875 -50.625 74.6875 C-49.14 74.1925 -49.14 74.1925 -47.625 73.6875 C-47.955 73.3575 -48.285 73.0275 -48.625 72.6875 C-48.955 71.6975 -49.285 70.7075 -49.625 69.6875 C-45.34822392 65.89358573 -40.75738307 63.58356151 -35.625 61.1875 C-34.78428955 60.79312744 -33.9435791 60.39875488 -33.07739258 59.99243164 C-24.47222233 56.03604097 -16.22544243 52.56895555 -6.625 52.6875 C-6.63166183 52.05300934 -6.63832367 51.41851868 -6.64518738 50.76480103 C-6.71140091 44.17918957 -6.75674223 37.59367219 -6.78979492 31.0078125 C-6.80490988 28.54781252 -6.82540227 26.08783959 -6.85131836 23.62792969 C-6.8875823 20.09823948 -6.90469914 16.56890456 -6.91796875 13.0390625 C-6.93345261 11.93382233 -6.94893646 10.82858215 -6.96488953 9.68984985 C-6.96511612 8.66894257 -6.96534271 7.64803528 -6.96557617 6.59619141 C-6.97223801 5.69462311 -6.97889984 4.79305481 -6.98576355 3.86416626 C-6.86671158 3.14586639 -6.74765961 2.42756653 -6.625 1.6875 C-3.625 -0.3125 -3.625 -0.3125 0 0 Z " fill="#B2CDC3" transform="translate(152.625,42.3125)"/>
<path d="M0 0 C3.63 0 7.26 0 11 0 C11 17.16 11 34.32 11 52 C14.3 52.33 17.6 52.66 21 53 C23.91015625 53.6484375 23.91015625 53.6484375 26.0625 54.375 C26.79597656 54.60960937 27.52945313 54.84421875 28.28515625 55.0859375 C30 56 30 56 31 59 C30.67 59.66 30.34 60.32 30 61 C30.66 61.33 31.32 61.66 32 62 C31 63 31 63 29.19921875 63.01953125 C19.14944997 62.19116773 10.13254303 60.02650861 0 58 C0 38.86 0 19.72 0 0 Z " fill="#B2CDC3" transform="translate(22,43)"/>
<path d="M0 0 C3.63 0 7.26 0 11 0 C11 21.45 11 42.9 11 65 C4.4 67.31 -2.2 69.62 -9 72 C-16.22611931 75.46558783 -21.84901106 79.22736904 -27.80859375 84.55859375 C-30 86 -30 86 -32.28515625 85.72265625 C-32.85105469 85.48417969 -33.41695313 85.24570313 -34 85 C-33.17730619 78.9120658 -27.52572651 75.5782077 -23 72 C-14.5325107 66.02043631 -6.93701724 62.82192971 3 59 C3.33 42.17 3.66 25.34 4 8 C2.35 8 0.7 8 -1 8 C-1.04241723 5.66705225 -1.04092937 3.33297433 -1 1 C-0.67 0.67 -0.34 0.34 0 0 Z " fill="#EFA78B" transform="translate(133,26)"/>
<path d="M0 0 C0.66 0.99 1.32 1.98 2 3 C-1.61328125 7.6875 -1.61328125 7.6875 -3 9 C-3.99 9 -4.98 9 -6 9 C-6.99 11.97 -7.98 14.94 -9 18 C-6.36 18.33 -3.72 18.66 -1 19 C-1 18.34 -1 17.68 -1 17 C-0.34 17 0.32 17 1 17 C1 14.69 1 12.38 1 10 C3.31 10.33 5.62 10.66 8 11 C7.195625 11.86625 6.39125 12.7325 5.5625 13.625 C-4.54189056 25.52519457 -12.17884163 39.12427149 -13 55 C-13.99 55 -14.98 55 -16 55 C-20.19010766 40.93321 -20.28337838 29.55178969 -13.62109375 16.24609375 C-12.45956491 14.13151561 -11.26541378 12.05370433 -10 10 C-9.34 10 -8.68 10 -8 10 C-7.79375 9.46375 -7.5875 8.9275 -7.375 8.375 C-5.42003056 4.9982346 -2.81776305 2.69525161 0 0 Z " fill="#F0A789" transform="translate(94,42)"/>
<path d="M0 0 C0.33 0 0.66 0 1 0 C1 19.8 1 39.6 1 60 C3.31 60.66 5.62 61.32 8 62 C7.01 61.34 6.02 60.68 5 60 C7.44381337 58.40212203 8.74153018 57.97971312 11.6875 58.2109375 C15.59940017 59.14278164 18.88245092 60.75919684 22.375 62.6875 C23.03185791 63.04473145 23.68871582 63.40196289 24.36547852 63.77001953 C34.26187787 69.24993499 34.26187787 69.24993499 38 73 C38 73.66 38 74.32 38 75 C38.86625 75.37125 38.86625 75.37125 39.75 75.75 C42.32939979 77.18299988 44.06121592 78.78424676 46 81 C46 81.66 46 82.32 46 83 C46.66 83 47.32 83 48 83 C48.66 84.65 49.32 86.3 50 88 C50.66 88 51.32 88 52 88 C52 85.69 52 83.38 52 81 C52.33 81 52.66 81 53 81 C53 83.64 53 86.28 53 89 C50.375 89.9375 50.375 89.9375 47 90 C45.14470076 88.37552438 43.76350638 86.64322635 42.296875 84.6640625 C41.0854123 82.86329935 41.0854123 82.86329935 39 82 C39 81.34 39 80.68 39 80 C38.26136719 79.73574219 37.52273437 79.47148438 36.76171875 79.19921875 C34.01494534 78.0064897 32.14444602 76.66871204 29.8125 74.8125 C21.0409617 68.48852518 10.19813139 65.32900786 0 62 C-1.15121304 55.59173316 -1.14459009 49.29147559 -1.1328125 42.79296875 C-1.13376923 41.63122635 -1.13472595 40.46948395 -1.13571167 39.27253723 C-1.13638998 36.82760565 -1.1345601 34.38267223 -1.13037109 31.93774414 C-1.12499365 28.18306484 -1.13034034 24.42850384 -1.13671875 20.67382812 C-1.13605838 18.29687474 -1.13477808 15.91992142 -1.1328125 13.54296875 C-1.13483673 12.4159404 -1.13686096 11.28891205 -1.13894653 10.12773132 C-1.13579437 9.08937637 -1.13264221 8.05102142 -1.12939453 6.98120117 C-1.12859894 6.06521652 -1.12780334 5.14923187 -1.12698364 4.20549011 C-1 2 -1 2 0 0 Z " fill="#C3D6CF" transform="translate(36,29)"/>
<path d="M0 0 C3.63 0 7.26 0 11 0 C11 21.45 11 42.9 11 65 C2 68 2 68 -1 68 C-1 67.34 -1 66.68 -1 66 C-0.15115234 65.83564453 -0.15115234 65.83564453 0.71484375 65.66796875 C1.44832031 65.50941406 2.18179688 65.35085937 2.9375 65.1875 C3.66839844 65.03667969 4.39929688 64.88585937 5.15234375 64.73046875 C5.76207031 64.48941406 6.37179688 64.24835938 7 64 C8.05946564 60.82160309 8.12064296 58.58154652 8.11352539 55.2434082 C8.11344986 54.06241043 8.11337433 52.88141266 8.11329651 51.66462708 C8.10813522 50.38955795 8.10297394 49.11448883 8.09765625 47.80078125 C8.0962413 46.49545944 8.09482635 45.19013763 8.09336853 43.84526062 C8.0895538 40.37810344 8.07973244 36.91098826 8.06866455 33.44384766 C8.05842798 29.90462818 8.0538661 26.3654019 8.04882812 22.82617188 C8.03810923 15.88409735 8.02104534 8.94205069 8 2 C6.02 2.99 6.02 2.99 4 4 C4.32307129 4.92651367 4.64614258 5.85302734 4.97900391 6.80761719 C6.41135803 11.85252352 6.32439024 16.86701984 6.3359375 22.078125 C6.3425943 23.1265155 6.3492511 24.17490601 6.35610962 25.25506592 C6.36619601 27.46039076 6.37092789 29.66574587 6.37060547 31.87109375 C6.37500404 35.25310678 6.41143619 38.63384032 6.44921875 42.015625 C6.45508255 44.16145388 6.45905486 46.30728894 6.4609375 48.453125 C6.47530853 49.46562317 6.48967957 50.47812134 6.50448608 51.52130127 C6.49833282 52.45947693 6.49217957 53.39765259 6.48583984 54.36425781 C6.48868988 55.18919739 6.49153992 56.01413696 6.49447632 56.86407471 C6 59 6 59 4.20401001 60.74676514 C1.21362159 62.44714717 -1.6079196 62.67383842 -5 63 C-3 61 -3 61 3 59 C3.33 42.17 3.66 25.34 4 8 C2.35 8 0.7 8 -1 8 C-1.04241723 5.66705225 -1.04092937 3.33297433 -1 1 C-0.67 0.67 -0.34 0.34 0 0 Z " fill="#EBBDAE" transform="translate(133,26)"/>
<path d="M0 0 C10.06632896 0.14798553 20.68406724 2.27784 29.9284668 6.32568359 C29.9284668 8.32568359 29.9284668 8.32568359 28.7565918 9.93115234 C21.92795367 15.14017758 3.71161466 10.59252683 -4.3996582 9.86083984 C-5.71305176 9.74301147 -5.71305176 9.74301147 -7.05297852 9.62280273 C-9.0715332 9.32568359 -9.0715332 9.32568359 -10.0715332 8.32568359 C-10.1965332 4.82568359 -10.1965332 4.82568359 -10.0715332 1.32568359 C-7.79228273 -0.95356688 -3.07023756 0.01896726 0 0 Z " fill="#AECBC1" transform="translate(32.071533203125,105.67431640625)"/>
<path d="M0 0 C16.74762261 2.76099635 28.44192672 9.54774913 40 22 C39.34 23.32 38.68 24.64 38 26 C35.00745382 24.59808647 32.4045389 22.96632511 29.75 21 C29.04359375 20.484375 28.3371875 19.96875 27.609375 19.4375 C27.07828125 18.963125 26.5471875 18.48875 26 18 C26 17.34 26 16.68 26 16 C25.41661865 15.86787109 24.8332373 15.73574219 24.23217773 15.59960938 C22.1177003 15.03161675 20.27376499 14.31325276 18.28515625 13.40625 C17.59873047 13.09816406 16.91230469 12.79007813 16.20507812 12.47265625 C14.77993074 11.8256887 13.355447 11.1772572 11.93164062 10.52734375 C8.29892775 8.89994286 4.97916529 7.56066517 1 7 C1 6.01 1 5.02 1 4 C0.34 3.67 -0.32 3.34 -1 3 C-0.67 2.01 -0.34 1.02 0 0 Z " fill="#B5CDC6" transform="translate(45,27)"/>
<path d="M0 0 C0.33 1.32 0.66 2.64 1 4 C1.969375 3.814375 2.93875 3.62875 3.9375 3.4375 C5.4534375 3.2209375 5.4534375 3.2209375 7 3 C8.6136392 4.6136392 8.20344102 6.42627771 8.28125 8.65625 C8.31863281 9.59597656 8.35601562 10.53570312 8.39453125 11.50390625 C8.46484375 13.50130208 8.53515625 15.49869792 8.60546875 17.49609375 C8.64285156 18.43582031 8.68023437 19.37554687 8.71875 20.34375 C8.74904297 21.21193359 8.77933594 22.08011719 8.81054688 22.97460938 C8.78221501 24.9949413 8.78221501 24.9949413 10 26 C11.65 23.69 13.3 21.38 15 19 C16.98 20.65 18.96 22.3 21 24 C21.66 23.67 22.32 23.34 23 23 C23 23.99 23 24.98 23 26 C21.02 26.99 21.02 26.99 19 28 C19.2475 28.928125 19.2475 28.928125 19.5 29.875 C20 32 20 32 20 34 C17.36 34.33 14.72 34.66 12 35 C12 34.34 12 33.68 12 33 C11.05125 32.9175 10.1025 32.835 9.125 32.75 C6 32 6 32 4.625 29.9375 C4.41875 29.298125 4.2125 28.65875 4 28 C4.66 28 5.32 28 6 28 C5.34 21.07 4.68 14.14 4 7 C3.34 9.64 2.68 12.28 2 15 C1.34 15 0.68 15 0 15 C-1.47193312 12.05613377 -0.84936173 9.62609964 -0.5625 6.375 C-0.46066406 5.18648438 -0.35882813 3.99796875 -0.25390625 2.7734375 C-0.17011719 1.85820313 -0.08632812 0.94296875 0 0 Z M8 27 C7.67 27.66 7.34 28.32 7 29 C7.66 29 8.32 29 9 29 C8.67 28.34 8.34 27.68 8 27 Z " fill="#B3C8C1" transform="translate(83,90)"/>
<path d="M0 0 C0 0.66 0 1.32 0 2 C-1.65 2.33 -3.3 2.66 -5 3 C-5 3.66 -5 4.32 -5 5 C-2.03 5 0.94 5 4 5 C1.26475204 6.82349864 -1.48362891 8.2095498 -4.44628906 9.61547852 C-11.39550826 12.93054789 -17.27729044 16.35085078 -22.984375 21.62890625 C-25 23 -25 23 -27.265625 22.71484375 C-27.83796875 22.47894531 -28.4103125 22.24304688 -29 22 C-28.17888363 15.92373887 -22.53227555 12.55609312 -18 9 C-4.91044776 0 -4.91044776 0 0 0 Z " fill="#E8B49E" transform="translate(128,89)"/>
<path d="M0 0 C0.12375 1.918125 0.12375 1.918125 0.25 3.875 C0.45869931 6.05333418 0.45869931 6.05333418 1 8 C2.92064793 9.5899433 2.92064793 9.5899433 5 10 C5 10.99 5 11.98 5 13 C4.34 13 3.68 13 3 13 C2.731875 13.70125 2.46375 14.4025 2.1875 15.125 C0.9318551 18.1649824 -0.50235123 21.0727774 -2 24 C-2.99 23.67 -3.98 23.34 -5 23 C-4.34 22.67 -3.68 22.34 -3 22 C-3.14076315 20.0412957 -3.2877676 18.08303907 -3.4375 16.125 C-3.51871094 15.03445312 -3.59992188 13.94390625 -3.68359375 12.8203125 C-3.83001703 10.05271029 -3.83001703 10.05271029 -5 8 C-5.33 9.98 -5.66 11.96 -6 14 C-7.98 13.34 -9.96 12.68 -12 12 C-1.93659942 0 -1.93659942 0 0 0 Z " fill="#F0AD93" transform="translate(107,30)"/>
<path d="M0 0 C5.50129642 2.2390014 9.2376872 7.17098393 12.45703125 12 C12.45703125 12.99 12.45703125 13.98 12.45703125 15 C9.77982443 14.60337677 8.48426499 14.02310741 6.39453125 12.25 C2.78253945 9.48336798 -0.98487452 8.06440247 -5.21484375 6.44140625 C-7.54296875 5 -7.54296875 5 -8.37109375 2.33984375 C-8.4278125 1.56769531 -8.48453125 0.79554687 -8.54296875 0 C-5.51047794 -1.51624541 -3.227534 -0.75083182 0 0 Z " fill="#E4B3A2" transform="translate(61.54296875,53)"/>
<path d="M0 0 C0.99 0.33 1.98 0.66 3 1 C4.18606161 6.65692292 4.1961836 12.22703706 4.23828125 17.98046875 C4.246353 19.0302742 4.25442474 20.08007965 4.26274109 21.16169739 C4.27652915 23.37299979 4.28727473 25.58432299 4.29516602 27.7956543 C4.30674978 30.06231903 4.32730073 32.32895518 4.35668945 34.59545898 C4.39913352 37.86981747 4.4154967 41.14337024 4.42578125 44.41796875 C4.44328934 45.43360397 4.46079742 46.4492392 4.47883606 47.49565125 C4.47591049 48.4370546 4.47298492 49.37845795 4.4699707 50.34838867 C4.47583694 51.17634445 4.48170319 52.00430023 4.48774719 52.85734558 C4 55 4 55 2.20500183 56.74775696 C-0.78603794 58.44639897 -3.60810465 58.67385622 -7 59 C-4.53721199 56.53721199 -2.29323018 56.00228745 1 55 C1.02531484 47.64934015 1.04285202 40.2986915 1.05493164 32.94799805 C1.05996641 30.44636617 1.06679461 27.94473724 1.07543945 25.44311523 C1.08754238 21.85139234 1.09323682 18.25970828 1.09765625 14.66796875 C1.10281754 13.54601608 1.10797882 12.42406342 1.11329651 11.26811218 C1.11337204 10.22725967 1.11344757 9.18640717 1.11352539 8.11401367 C1.11685631 6.7383448 1.11685631 6.7383448 1.12025452 5.33488464 C1.09611358 2.84331835 1.09611358 2.84331835 0 0 Z " fill="#E6B8A2" transform="translate(135,30)"/>
<path d="M0 0 C5.91820229 0.28869279 9.12081128 2.79206647 13 7 C15.69267473 10.66393277 17 13.33139339 17 18 C13.52757342 17.44113306 12.2304405 16.46501615 10.125 13.6875 C7.44665087 10.35655819 4.57424619 8.35575317 1 6 C-0.4375 3.875 -0.4375 3.875 -1 2 C-0.67 1.34 -0.34 0.68 0 0 Z " fill="#E7B096" transform="translate(69,21)"/>
<path d="M0 0 C-0.31780313 3.14571231 -0.60415403 4.62101563 -2.92578125 6.84375 C-3.71339844 7.3903125 -4.50101563 7.936875 -5.3125 8.5 C-8.82476142 11.04778328 -11.36724263 13.52476027 -14 17 C-14.66 17 -15.32 17 -16 17 C-17 14 -17 14 -16.43359375 12.16796875 C-13.1096385 5.5591636 -8.44308088 -2.62026648 0 0 Z " fill="#EBB5A5" transform="translate(106,22)"/>
<path d="M0 0 C0.33 1.32 0.66 2.64 1 4 C1.969375 3.814375 2.93875 3.62875 3.9375 3.4375 C5.4534375 3.2209375 5.4534375 3.2209375 7 3 C8.68300669 4.68300669 8.22809077 6.82008727 8.31640625 9.12890625 C8.37924805 10.68061523 8.37924805 10.68061523 8.44335938 12.26367188 C8.48267578 13.35228516 8.52199219 14.44089844 8.5625 15.5625 C8.60568359 16.65498047 8.64886719 17.74746094 8.69335938 18.87304688 C8.79982068 21.58189564 8.90183516 24.29083992 9 27 C8.34 27.33 7.68 27.66 7 28 C6.67 24.7 6.34 21.4 6 18 C5.67 18 5.34 18 5 18 C4.67 14.37 4.34 10.74 4 7 C3.34 9.64 2.68 12.28 2 15 C1.34 15 0.68 15 0 15 C-1.47193312 12.05613377 -0.84936173 9.62609964 -0.5625 6.375 C-0.46066406 5.18648438 -0.35882813 3.99796875 -0.25390625 2.7734375 C-0.17011719 1.85820313 -0.08632812 0.94296875 0 0 Z " fill="#DDB9B4" transform="translate(83,90)"/>
<path d="M0 0 C0 2 0 2 -1.09765625 3.60546875 C-3.8691976 5.6371736 -6.04151407 5.36261103 -9.4375 5.3125 C-10.57058594 5.30863281 -11.70367187 5.30476563 -12.87109375 5.30078125 C-15.81574545 5.01771236 -17.51323073 4.53360955 -20 3 C-19.01 3 -18.02 3 -17 3 C-17 2.34 -17 1.68 -17 1 C-10.90660831 -0.88341198 -6.27467799 -1.0748291 0 0 Z " fill="#A9CABF" transform="translate(62,112)"/>
<path d="M0 0 C0.66 0.99 1.32 1.98 2 3 C-1.61328125 7.6875 -1.61328125 7.6875 -3 9 C-3.99 9 -4.98 9 -6 9 C-6 9.66 -6 10.32 -6 11 C-6.99 11 -7.98 11 -9 11 C-9.09796875 11.59167969 -9.1959375 12.18335938 -9.296875 12.79296875 C-10.25769801 17.87042139 -11.2985201 21.17513744 -15 25 C-15.66 24.67 -16.32 24.34 -17 24 C-14.69 19.38 -12.38 14.76 -10 10 C-9.34 10 -8.68 10 -8 10 C-7.79375 9.46375 -7.5875 8.9275 -7.375 8.375 C-5.42003056 4.9982346 -2.81776305 2.69525161 0 0 Z " fill="#EABCA9" transform="translate(94,42)"/>
<path d="M0 0 C0.66 0 1.32 0 2 0 C2.87042243 1.88842514 3.72075474 3.78611902 4.5625 5.6875 C5.03816406 6.74324219 5.51382813 7.79898437 6.00390625 8.88671875 C7.05322011 12.16633893 7.00418265 13.75895539 6 17 C5.34 15.68 4.68 14.36 4 13 C3.01 13.495 3.01 13.495 2 14 C2 11.69 2 9.38 2 7 C1.34 7 0.68 7 0 7 C0 7.66 0 8.32 0 9 C-0.66 9 -1.32 9 -2 9 C-2 9.99 -2 10.98 -2 12 C-2.66 12 -3.32 12 -4 12 C-3.52494322 10.18641846 -3.04483958 8.37415821 -2.5625 6.5625 C-2.29566406 5.55316406 -2.02882813 4.54382813 -1.75390625 3.50390625 C-1 1 -1 1 0 0 Z " fill="#EAB29C" transform="translate(122,4)"/>
<path d="M0 0 C0.33 0 0.66 0 1 0 C1.44350149 11.25179698 0.62805781 21.08389814 -5 31 C-6.42553882 27.20461639 -5.50796719 24.86710136 -4.1875 21.125 C-1.88779746 14.11448812 -0.83446886 7.32356225 0 0 Z " fill="#E8B6A4" transform="translate(129,21)"/>
<path d="M0 0 C0.33 1.32 0.66 2.64 1 4 C2.65 3.67 4.3 3.34 6 3 C5.57847656 3.55429688 5.15695313 4.10859375 4.72265625 4.6796875 C4.17480469 5.40414062 3.62695312 6.12859375 3.0625 6.875 C2.51722656 7.59429687 1.97195312 8.31359375 1.41015625 9.0546875 C-0.03964624 10.94357079 -0.03964624 10.94357079 -1 13 C-1.66 13 -2.32 13 -3 13 C-3.12375 13.61875 -3.2475 14.2375 -3.375 14.875 C-4 17 -4 17 -6 19 C-6.1875 16.1875 -6.1875 16.1875 -6 13 C-5.5359375 12.54625 -5.071875 12.0925 -4.59375 11.625 C-2.52724042 9.51797062 -2.08404937 7.64151435 -1.3125 4.8125 C-1.06113281 3.91144531 -0.80976562 3.01039062 -0.55078125 2.08203125 C-0.36902344 1.39496094 -0.18726562 0.70789063 0 0 Z " fill="#EAB49D" transform="translate(93,75)"/>
<path d="M0 0 C5.08938811 1.59043379 8.87456643 4.7446951 13 8 C11.02 8.99 11.02 8.99 9 10 C9.33 9.01 9.66 8.02 10 7 C9.443125 7.53625 8.88625 8.0725 8.3125 8.625 C7.549375 9.07875 6.78625 9.5325 6 10 C3.25 9.1875 3.25 9.1875 1 8 C0.67 5.36 0.34 2.72 0 0 Z " fill="#C0D3CD" transform="translate(64,33)"/>
<path d="M0 0 C1.32 0.99 2.64 1.98 4 3 C2.40279281 7.3124594 -0.31633819 9.42143673 -4 12 C-6.375 11.8125 -6.375 11.8125 -8 11 C-7.34 11 -6.68 11 -6 11 C-5.83177734 10.12601563 -5.83177734 10.12601563 -5.66015625 9.234375 C-4.93999124 6.79689343 -3.95620605 5.2749414 -2.4375 3.25 C-1.98246094 2.63640625 -1.52742188 2.0228125 -1.05859375 1.390625 C-0.70925781 0.93171875 -0.35992187 0.4728125 0 0 Z " fill="#DAB6B0" transform="translate(98,109)"/>
<path d="M0 0 C1.32 0.66 2.64 1.32 4 2 C3.01 2.495 3.01 2.495 2 3 C2 3.66 2 4.32 2 5 C3.98 5.66 5.96 6.32 8 7 C8 7.33 8 7.66 8 8 C0.10276444 8.48350422 -7.33532703 6.67664721 -15 5 C-15 4.67 -15 4.34 -15 4 C-13.56260487 3.97287934 -12.12506137 3.95354933 -10.6875 3.9375 C-9.48673828 3.92009766 -9.48673828 3.92009766 -8.26171875 3.90234375 C-6 4 -6 4 -3 5 C-2.67 4.01 -2.34 3.02 -2 2 C-1.34 2 -0.68 2 0 2 C0 1.34 0 0.68 0 0 Z " fill="#BACFC9" transform="translate(62,112)"/>
<path d="M0 0 C0.33 0 0.66 0 1 0 C1.66 5.61 2.32 11.22 3 17 C3.66 17 4.32 17 5 17 C5.33 16.34 5.66 15.68 6 15 C6 17.97 6 20.94 6 24 C5.01 24 4.02 24 3 24 C0.56907044 15.8390222 -0.40735653 8.50922528 0 0 Z " fill="#E3C1B2" transform="translate(75,73)"/>
<path d="M0 0 C1.32 0 2.64 0 4 0 C4 1.65 4 3.3 4 5 C4.99 5 5.98 5 7 5 C7 5.66 7 6.32 7 7 C3.32589215 8.17571451 -0.16929183 8.07366746 -4 8 C-2.68 5.36 -1.36 2.72 0 0 Z " fill="#A9C7BE" transform="translate(138,96)"/>
<path d="M0 0 C0.556875 0.226875 1.11375 0.45375 1.6875 0.6875 C0.9375 5.4375 0.9375 5.4375 -1.3125 7.6875 C-3.9375 7.3125 -3.9375 7.3125 -6.3125 6.6875 C-6.6425 5.3675 -6.9725 4.0475 -7.3125 2.6875 C-2.88173077 -0.38942308 -2.88173077 -0.38942308 0 0 Z " fill="#EBAB92" transform="translate(104.3125,21.3125)"/>
<path d="M0 0 C2 2 2 2 2.125 5.125 C2.08375 6.07375 2.0425 7.0225 2 8 C1.34 8 0.68 8 0 8 C-0.66 10.64 -1.32 13.28 -2 16 C-2.99 16 -3.98 16 -5 16 C-5.37228042 9.42304593 -5.37228042 9.42304593 -3.625 7.4375 C-3.08875 6.963125 -2.5525 6.48875 -2 6 C-0.79950593 2.89992799 -0.79950593 2.89992799 0 0 Z " fill="#EDA283" transform="translate(89,78)"/>
<path d="M0 0 C0.33 0 0.66 0 1 0 C1 4.95 1 9.9 1 15 C4.75979645 16.36283174 4.75979645 16.36283174 7.25 15.0625 C7.8275 14.711875 8.405 14.36125 9 14 C9.99 14.99 10.98 15.98 12 17 C10.56496445 17.36402369 9.12683494 17.71586591 7.6875 18.0625 C6.48673828 18.35833984 6.48673828 18.35833984 5.26171875 18.66015625 C3 19 3 19 0 18 C-1.1875 15.9375 -1.1875 15.9375 -2 14 C-1.34 14 -0.68 14 0 14 C-0.08378906 13.32453125 -0.16757813 12.6490625 -0.25390625 11.953125 C-0.35574219 11.06109375 -0.45757812 10.1690625 -0.5625 9.25 C-0.66691406 8.36828125 -0.77132812 7.4865625 -0.87890625 6.578125 C-0.99456676 4.11567549 -0.73638695 2.33461936 0 0 Z " fill="#BDB1AA" transform="translate(89,104)"/>
<path d="M0 0 C0.66 0.33 1.32 0.66 2 1 C1.67 2.65 1.34 4.3 1 6 C-4.75 5.25 -4.75 5.25 -7 3 C-7 2.01 -7 1.02 -7 0 C-4.30919898 -1.34540051 -2.86443593 -0.71610898 0 0 Z " fill="#AFCBC0" transform="translate(62,94)"/>
<path d="M0 0 C0.33 1.32 0.66 2.64 1 4 C2.65 4 4.3 4 6 4 C5 7 5 7 4 8.9375 C3.02175093 10.95513871 2.46835328 12.81435137 2 15 C1.34 15 0.68 15 0 15 C-1.47193312 12.05613377 -0.84936173 9.62609964 -0.5625 6.375 C-0.46066406 5.18648438 -0.35882813 3.99796875 -0.25390625 2.7734375 C-0.17011719 1.85820313 -0.08632812 0.94296875 0 0 Z " fill="#E6BDB0" transform="translate(83,90)"/>
<path d="M0 0 C2.31 0.33 4.62 0.66 7 1 C6.62488281 1.42410156 6.24976562 1.84820312 5.86328125 2.28515625 C2.30335421 6.36517338 -0.91317997 10.5513476 -4 15 C-5 12 -5 12 -4 9 C-3.34 9 -2.68 9 -2 9 C-2 8.34 -2 7.68 -2 7 C-1.34 7 -0.68 7 0 7 C0 4.69 0 2.38 0 0 Z " fill="#EAB39C" transform="translate(95,52)"/>
<path d="M0 0 C0.33 0.66 0.66 1.32 1 2 C1.66 2 2.32 2 3 2 C3.66 3.65 4.32 5.3 5 7 C5.66 7 6.32 7 7 7 C7 4.69 7 2.38 7 0 C7.33 0 7.66 0 8 0 C8 2.64 8 5.28 8 8 C6.02 8.33 4.04 8.66 2 9 C0.68 7.02 -0.64 5.04 -2 3 C-1.34 2.01 -0.68 1.02 0 0 Z " fill="#C9D1CD" transform="translate(81,110)"/>
<path d="M0 0 C2.97 0.495 2.97 0.495 6 1 C7.125 4.75 7.125 4.75 6 7 C3.03 6.505 3.03 6.505 0 6 C-1.125 2.25 -1.125 2.25 0 0 Z " fill="#B2CBC3" transform="translate(62,105)"/>
<path d="M0 0 C0.804375 0.433125 0.804375 0.433125 1.625 0.875 C4.35280484 2.16711808 7.12612718 3.08558592 10 4 C10 4.99 10 5.98 10 7 C9.34 6.67 8.68 6.34 8 6 C8 6.99 8 7.98 8 9 C7.34 9 6.68 9 6 9 C5 8 4 7 3 6 C2.01 5.67 1.02 5.34 0 5 C0.33 4.67 0.66 4.34 1 4 C0.34 3.67 -0.32 3.34 -1 3 C-0.67 2.01 -0.34 1.02 0 0 Z " fill="#A5BEB9" transform="translate(78,115)"/>
<path d="M0 0 C1.22589844 0.29197266 1.22589844 0.29197266 2.4765625 0.58984375 C3.41628906 0.82380859 3.41628906 0.82380859 4.375 1.0625 C4.045 1.7225 3.715 2.3825 3.375 3.0625 C2.385 3.0625 1.395 3.0625 0.375 3.0625 C0.375 2.4025 0.375 1.7425 0.375 1.0625 C-0.615 1.0625 -1.605 1.0625 -2.625 1.0625 C-2.295 2.7125 -1.965 4.3625 -1.625 6.0625 C-2.945 5.7325 -4.265 5.4025 -5.625 5.0625 C-5.955 3.4125 -6.285 1.7625 -6.625 0.0625 C-3.99249612 -1.25375194 -2.82320944 -0.68563658 0 0 Z " fill="#E7BFB3" transform="translate(59.625,52.9375)"/>
<path d="M0 0 C0.66 0.33 1.32 0.66 2 1 C0.47987323 6.40489519 -3.27385218 9.98492628 -7 14 C-7.33 13.01 -7.66 12.02 -8 11 C-7.34 11 -6.68 11 -6 11 C-6 10.01 -6 9.02 -6 8 C-5.01 8 -4.02 8 -3 8 C-3 6.35 -3 4.7 -3 3 C-2.01 3 -1.02 3 0 3 C0 2.01 0 1.02 0 0 Z " fill="#EBB9A5" transform="translate(121,51)"/>
<path d="M0 0 C0.66 0 1.32 0 2 0 C2 1.98 2 3.96 2 6 C2.9075 5.773125 3.815 5.54625 4.75 5.3125 C8 5 8 5 10.203125 6.48046875 C10.79609375 6.98191406 11.3890625 7.48335938 12 8 C10.18757948 8.02687279 8.37504767 8.04633715 6.5625 8.0625 C5.55316406 8.07410156 4.54382813 8.08570312 3.50390625 8.09765625 C1 8 1 8 0 7 C-0.04092937 4.66702567 -0.04241723 2.33294775 0 0 Z " fill="#C4D3CE" transform="translate(22,107)"/>
<path d="M0 0 C0.66 0.99 1.32 1.98 2 3 C-2.43076923 8.78461538 -2.43076923 8.78461538 -5.3125 9.875 C-5.869375 9.91625 -6.42625 9.9575 -7 10 C-6.42424336 6.64749299 -5.40693737 5.06181371 -2.9375 2.75 C-2.38964844 2.22921875 -1.84179688 1.7084375 -1.27734375 1.171875 C-0.64505859 0.59179688 -0.64505859 0.59179688 0 0 Z " fill="#E9B39B" transform="translate(94,42)"/>
<path d="M0 0 C2.00720923 0.28674418 4.0085944 0.61866701 6 1 C6.33 1.99 6.66 2.98 7 4 C2.545 4.495 2.545 4.495 -2 5 C-1 1 -1 1 0 0 Z " fill="#C7D1D0" transform="translate(89,122)"/>
<path d="M0 0 C1.8125 0.1875 1.8125 0.1875 4 1 C6.14197494 3.90696599 7 5.35521088 7 9 C4.5625 8.25 4.5625 8.25 2 7 C1.125 5 1.125 5 1 3 C1.33 2.34 1.66 1.68 2 1 C1.34 0.67 0.68 0.34 0 0 Z " fill="#B1CAC3" transform="translate(67,99)"/>
<path d="M0 0 C1.32 0.99 2.64 1.98 4 3 C3.67 3.66 3.34 4.32 3 5 C3.99 5.33 4.98 5.66 6 6 C2.625 6.625 2.625 6.625 -1 7 C-1.66 6.34 -2.32 5.68 -3 5 C-1.125 1.125 -1.125 1.125 0 0 Z " fill="#BFD5CE" transform="translate(104,116)"/>
<path d="M0 0 C0 0.99 0 1.98 0 3 C0.66 3 1.32 3 2 3 C1.67 1.68 1.34 0.36 1 -1 C2.32 -0.34 3.64 0.32 5 1 C4.67 2.32 4.34 3.64 4 5 C1.69 4.67 -0.62 4.34 -3 4 C-3 3.01 -3 2.02 -3 1 C-3.99 0.67 -4.98 0.34 -6 0 C-3 -1 -3 -1 0 0 Z " fill="#ADC5C0" transform="translate(84,121)"/>
<path d="M0 0 C0.99 0 1.98 0 3 0 C3 0.66 3 1.32 3 2 C4.32 1.67 5.64 1.34 7 1 C7.33 2.65 7.66 4.3 8 6 C5.69 5.67 3.38 5.34 1 5 C0.67 3.35 0.34 1.7 0 0 Z " fill="#ECA687" transform="translate(57,54)"/>
<path d="M0 0 C1.32 0.33 2.64 0.66 4 1 C4.12375 1.78375 4.2475 2.5675 4.375 3.375 C4.79117993 6.14057822 4.79117993 6.14057822 7 8 C1.125 7.125 1.125 7.125 0 6 C-0.04080783 4.00041636 -0.04254356 1.99954746 0 0 Z " fill="#B0C9C0" transform="translate(60,32)"/>
<path d="M0 0 C0.99 0 1.98 0 3 0 C1.55049545 3.7910119 -0.15172566 7.3874638 -2 11 C-2.99 10.67 -3.98 10.34 -5 10 C-4.34 9.67 -3.68 9.34 -3 9 C-3 7.02 -3 5.04 -3 3 C-2.01 2.67 -1.02 2.34 0 2 C0 1.34 0 0.68 0 0 Z " fill="#EFC0AE" transform="translate(107,43)"/>
<path d="M0 0 C0.33 0.66 0.66 1.32 1 2 C1.66 2 2.32 2 3 2 C3 2.66 3 3.32 3 4 C-0.63 4.66 -4.26 5.32 -8 6 C-7.67 4.68 -7.34 3.36 -7 2 C-6.21625 2.04125 -5.4325 2.0825 -4.625 2.125 C-1.83883881 2.28728734 -1.83883881 2.28728734 0 0 Z " fill="#B8CFC7" transform="translate(119,115)"/>
<path d="M0 0 C2.97 0.495 2.97 0.495 6 1 C5.34 1.66 4.68 2.32 4 3 C4.32041397 5.60280568 4.32041397 5.60280568 5 8 C2.4636387 6.98545548 1.20648539 6.3146444 -0.3125 4 C-0.539375 3.34 -0.76625 2.68 -1 2 C-0.67 1.34 -0.34 0.68 0 0 Z " fill="#E5BBAB" transform="translate(69,21)"/>
<path d="M0 0 C2.5 2.3125 2.5 2.3125 5 5 C5 5.99 5 6.98 5 8 C2.11424181 7.60196439 1.17810487 7.20990931 -0.75 4.9375 C-1.1625 4.298125 -1.575 3.65875 -2 3 C-1.34 3 -0.68 3 0 3 C0 2.01 0 1.02 0 0 Z " fill="#E2C3B1" transform="translate(69,60)"/>
<path d="M0 0 C1.32 1.32 2.64 2.64 4 4 C3.01 5.485 3.01 5.485 2 7 C-1.16115776 5.63016497 -1.9927092 5.0109362 -4 2 C-2.68 2 -1.36 2 0 2 C0 1.34 0 0.68 0 0 Z " fill="#BFD3C9" transform="translate(81,46)"/>
<path d="M0 0 C0.33 0 0.66 0 1 0 C0.67 2.31 0.34 4.62 0 7 C-0.99 7 -1.98 7 -3 7 C-3.66 8.32 -4.32 9.64 -5 11 C-5.66 11 -6.32 11 -7 11 C-5.5129879 6.40378078 -3.20187872 3.53027653 0 0 Z " fill="#E7BBA9" transform="translate(100,56)"/>
<path d="M0 0 C2.0625 0.4375 2.0625 0.4375 4 1 C3.34 1.66 2.68 2.32 2 3 C2.66 4.65 3.32 6.3 4 8 C2.35 8 0.7 8 -1 8 C-1.04241723 5.66705225 -1.04092937 3.33297433 -1 1 C-0.67 0.67 -0.34 0.34 0 0 Z " fill="#EEC5B3" transform="translate(133,26)"/>
<path d="M0 0 C0.33 0 0.66 0 1 0 C0.67 3.3 0.34 6.6 0 10 C-0.99 10.33 -1.98 10.66 -3 11 C-3.33 11.66 -3.66 12.32 -4 13 C-3.71517632 11.58194169 -3.42181856 10.16559621 -3.125 8.75 C-2.96257812 7.96109375 -2.80015625 7.1721875 -2.6328125 6.359375 C-2.00849925 4.03168856 -1.15161458 2.10968048 0 0 Z " fill="#EABBA8" transform="translate(88,74)"/>
<path d="M0 0 C2.52259061 1.97420135 2.9929808 2.96745642 3.6875 6.1875 C3.790625 7.115625 3.89375 8.04375 4 9 C2.125 8.75 2.125 8.75 0 8 C-1.25 5.9375 -1.25 5.9375 -2 4 C-1.01 4 -0.02 4 1 4 C0.67 2.68 0.34 1.36 0 0 Z " fill="#E4B9B0" transform="translate(82,30)"/>
<path d="M0 0 C6.2054142 0.48320848 11.99945246 1.33318124 18 3 C18 3.33 18 3.66 18 4 C11.28299653 4.31985731 6.24273068 3.4793824 0 1 C0 0.67 0 0.34 0 0 Z " fill="#C4D3CD" transform="translate(39,107)"/>
<path d="M0 0 C1.32 0.33 2.64 0.66 4 1 C3.625 3.4375 3.625 3.4375 3 6 C2.01 6.495 2.01 6.495 1 7 C1 5.68 1 4.36 1 3 C-0.32 3.33 -1.64 3.66 -3 4 C-2.01 2.68 -1.02 1.36 0 0 Z " fill="#E4AF9B" transform="translate(102,21)"/>
<path d="M0 0 C0 3.59857954 -0.95830515 5.09451118 -3 8 C-3.66 8 -4.32 8 -5 8 C-5.33 8.99 -5.66 9.98 -6 11 C-5.05714286 4.08571429 -5.05714286 4.08571429 -3 1 C-2.01 0.67 -1.02 0.34 0 0 Z " fill="#E5A992" transform="translate(95,66)"/>
<path d="M0 0 C0.66 0.33 1.32 0.66 2 1 C1.49396008 3.16874252 1.00016187 4.99967627 0 7 C-1.32 7 -2.64 7 -4 7 C-2.79618552 4.50638429 -1.54571278 2.31856917 0 0 Z " fill="#E9B6A5" transform="translate(117,17)"/>
<path d="M0 0 C1.32 0.99 2.64 1.98 4 3 C2.63016497 6.16115776 2.0109362 6.9927092 -1 9 C-0.814375 8.4225 -0.62875 7.845 -0.4375 7.25 C0.04182379 4.78490621 -0.34273163 3.38259782 -1 1 C-0.67 0.67 -0.34 0.34 0 0 Z " fill="#ECD2C8" transform="translate(98,109)"/>
<path d="M0 0 C-1.33332095 3.99996286 -3.4957827 4.83782337 -7 7 C-7 5.35 -7 3.7 -7 2 C-4.35261084 0.5393715 -3.10551666 0 0 0 Z " fill="#E9B7A0" transform="translate(106,71)"/>
<path d="M0 0 C0.66 0 1.32 0 2 0 C1.47731534 2.76276177 0.89130413 5.3260876 0 8 C-0.99 8 -1.98 8 -3 8 C-2.45276317 4.62537285 -1.9451 2.91765 0 0 Z " fill="#E49774" transform="translate(115,32)"/>
<path d="M0 0 C0.66 0 1.32 0 2 0 C2.66 1.98 3.32 3.96 4 6 C2.02 6.33 0.04 6.66 -2 7 C-1.34 4.69 -0.68 2.38 0 0 Z " fill="#E7BDB1" transform="translate(122,4)"/>
<path d="M0 0 C0.66 0 1.32 0 2 0 C1.343621 4.48525648 0.29925791 8.66914029 -1 13 C-1.33 13 -1.66 13 -2 13 C-1.85851011 11.3954444 -1.71164314 9.79136233 -1.5625 8.1875 C-1.48128906 7.29417969 -1.40007812 6.40085937 -1.31640625 5.48046875 C-1 3 -1 3 0 0 Z " fill="#E5B4A6" transform="translate(83,75)"/>
<path d="M0 0 C0.12375 0.639375 0.2475 1.27875 0.375 1.9375 C0.684375 2.9584375 0.684375 2.9584375 1 4 C1.66 4.33 2.32 4.66 3 5 C1.68 5.33 0.36 5.66 -1 6 C-1.33 5.34 -1.66 4.68 -2 4 C-2.99 3.34 -3.98 2.68 -5 2 C-2 0 -2 0 0 0 Z " fill="#C5D4D0" transform="translate(110,108)"/>
<path d="M0 0 C0.33 0.66 0.66 1.32 1 2 C1.66 2 2.32 2 3 2 C1.768606 4.46278801 0.21935077 5.42497687 -2 7 C-2 3 -2 3 0 0 Z " fill="#E6A58A" transform="translate(109,45)"/>
<path d="M0 0 C0.33 0.99 0.66 1.98 1 3 C-0.65 3.66 -2.3 4.32 -4 5 C-4.66 4.34 -5.32 3.68 -6 3 C-3.375 0 -3.375 0 0 0 Z " fill="#AABEB5" transform="translate(105,113)"/>
<path d="M0 0 C1.67542976 0.28604898 3.34385343 0.61781233 5 1 C4.67 1.66 4.34 2.32 4 3 C3.34 3 2.68 3 2 3 C2 3.66 2 4.32 2 5 C1.34 5 0.68 5 0 5 C-0.5625 3.0625 -0.5625 3.0625 -1 1 C-0.67 0.67 -0.34 0.34 0 0 Z " fill="#A7C3BA" transform="translate(111,107)"/>
<path d="M0 0 C0.99 0.33 1.98 0.66 3 1 C3.33 2.98 3.66 4.96 4 7 C3.34 7 2.68 7 2 7 C2 6.01 2 5.02 2 4 C1.34 4 0.68 4 0 4 C0 2.68 0 1.36 0 0 Z " fill="#C4D9D4" transform="translate(153,105)"/>
<path d="M0 0 C2.97 0.495 2.97 0.495 6 1 C3.08235 2.9451 1.37462715 3.45276317 -2 4 C-1.34 2.68 -0.68 1.36 0 0 Z " fill="#EDA78F" transform="translate(111,99)"/>
<path d="M0 0 C0.66 0 1.32 0 2 0 C2.33 2.64 2.66 5.28 3 8 C2.34 8 1.68 8 1 8 C-0.35439668 5.29120665 -0.06501451 2.99066732 0 0 Z " fill="#E5D3CC" transform="translate(82,97)"/>
<path d="M0 0 C2.64 0.33 5.28 0.66 8 1 C7.01 1.33 6.02 1.66 5 2 C5 2.66 5 3.32 5 4 C4.34 4 3.68 4 3 4 C2.67 4.66 2.34 5.32 2 6 C2 4.35 2 2.7 2 1 C1.34 0.67 0.68 0.34 0 0 Z " fill="#BDD0CA" transform="translate(140,95)"/>
<path d="M0 0 C0.33 0.66 0.66 1.32 1 2 C1.66 2.33 2.32 2.66 3 3 C2.01 4.485 2.01 4.485 1 6 C-0.32 5.34 -1.64 4.68 -3 4 C-2.01 2.68 -1.02 1.36 0 0 Z " fill="#A7C9BE" transform="translate(51,89)"/>
<path d="M0 0 C0.433125 0.9590625 0.433125 0.9590625 0.875 1.9375 C1.82823451 4.15206079 1.82823451 4.15206079 4 5 C2.02 5.99 2.02 5.99 0 7 C-0.33 6.01 -0.66 5.02 -1 4 C-1.66 3.67 -2.32 3.34 -3 3 C-2.01 2.01 -1.02 1.02 0 0 Z " fill="#EEB6A8" transform="translate(104,103)"/>
</svg>
